# xmcd
#
# Track frame offsets:
#	150
#	15975
#	38405
#	57525
#	71870
#	106950
#	125000
#	138240
#	157572
#
# Disc length: 2483 seconds
#
# Revision: 0
# Processed by: cddbd v1.5.1PL2 Copyright (c) Steve Scherf et al.
# Submitted via: SynApp - FreeCDDB Version: 2.2
#
DISCID=6d09b109
DTITLE=Blowing Bullfrog - Blowing Bullfrog - Better off with the Blues
DYEAR=1999
DGENRE=Blues
TTITLE0=Springtime Shuffle
TTITLE1=Phone booth
TTITLE2=I've got the blues
TTITLE3=I put a spell on you
TTITLE4=Sharlene
TTITLE5=Why don't you do right
TTITLE6=Nobody's fault
TTITLE7=Red Blood
TTITLE8=Stormy Monday
EXTD=
EXTT0=
EXTT1=
EXTT2=
EXTT3=
EXTT4=
EXTT5=
EXTT6=
EXTT7=
EXTT8=
PLAYORDER=
